# xmcd CD database file
#
# Track frame offsets:
#	150
#	5006
#	26919
#	44091
#	59225
#	80709
#	98312
#	119655
#	136993
#	158888
#	177013
#	196092
#	211331
#
# Disc length: 3065 seconds
#
# Revision: 0
# Processed by: cddbd v1.5.1PL0 Copyright (c) Steve Scherf et al.
# Submitted via: CDex 1.51
#
DISCID=b80bf70d
DTITLE=Gary Fuston - Unwind
DYEAR=2004
DGENRE=Jazz
TTITLE0=Gary Fuston - Unwind - 01 - Unwind Interlude
TTITLE1=Gary Fuston - Unwind - 02 - Unwind
TTITLE2=Gary Fuston - Unwind - 03 - To Know You
TTITLE3=Gary Fuston - Unwind - 04 - Smooth Cruise
TTITLE4=Gary Fuston - Unwind - 05 - Think About It
TTITLE5=Gary Fuston - Unwind - 06 - Its Up To You
TTITLE6=Gary Fuston - Unwind - 07 - Funky Mr. Johnson
TTITLE7=Gary Fuston - Unwind - 08 - On The Radio
TTITLE8=Gary Fuston - Unwind - 09 - Take It Down
TTITLE9=Gary Fuston - Unwind - 10 - Soul Thankful
TTITLE10=Gary Fuston - Unwind - 11 - Gruv Zone
TTITLE11=Gary Fuston - Unwind - 12 - On To The Next
TTITLE12=Gary Fuston - Unwind - 13 - After The Rain
EXTD=YEAR: 2004
EXTT0=
EXTT1=
EXTT2=
EXTT3=
EXTT4=
EXTT5=
EXTT6=
EXTT7=
EXTT8=
EXTT9=
EXTT10=
EXTT11=
EXTT12=
PLAYORDER=
